<svg width="24" height="24" viewBox="0 0 24 24" xmlns="http://www.w3.org/2000/svg"><path d="M12 3C8.1 3 5 4.1 5 5.5v3c0 1.3 2.5 2.3 5.8 2.5.5-1.2 1.4-2.2 2.5-2.8-.4.1-.9.1-1.3.1-3.4 0-5.5-1-5.5-1.8v-1c1.2.8 3.2 1.3 5.5 1.3s4.3-.5 5.5-1.3v1c0 .1-.1.2-.2.3.5 0 1 .1 1.5.3.4-.3.7-.7.7-1.3C19 4.1 15.9 3 12 3zM5 10.5v3c0 1.2 2 2.2 4.9 2.4.1-.7.4-1.4.7-2-3-.2-5.6-1.2-5.6-1.9v-1.5zm0 5v3C5 19.9 8.1 21 12 21h.3c-.2-.6-.3-1.3-.3-2 0-.2 0-.4 0-.6h-.1c-3.4 0-5.4-1-5.4-1.4v-1.5zM17.5 10c-2.5 0-4.5 2-4.5 4.5 0 .9.3 1.8.7 2.5l-3.2 3.2 1.4 1.4 3.2-3.2c.7.5 1.6.7 2.5.7 2.5 0 4.5-2 4.5-4.5S20 10 17.5 10zm0 2c1.4 0 2.5 1.1 2.5 2.5S18.9 17 17.5 17 15 15.9 15 14.5 16.1 12 17.5 12z" fill="#000000"/></svg>
